<?xml version="1.0" encoding="UTF-8" standalone="no"?>
<!DOCTYPE svg PUBLIC "-//W3C//DTD SVG 1.1//EN"
 "http://www.w3.org/Graphics/SVG/1.1/DTD/svg11.dtd">
<!-- Generated by graphviz version 2.38.0 (20140413.2041)
 -->
<!-- Title: models_diagram Pages: 1 -->
<svg width="656pt" height="258pt"
 viewBox="0.00 0.00 656.34 258.00" xmlns="http://www.w3.org/2000/svg" xmlns:xlink="http://www.w3.org/1999/xlink">
<g id="graph0" class="graph" transform="scale(1 1) rotate(0) translate(4 254)">
<title>models_diagram</title>
<polygon fill="none" stroke="none" points="-4,4 -4,-254 652.343,-254 652.343,4 -4,4"/>
<!-- _diagram_info -->
<g id="node1" class="node"><title>_diagram_info</title>
<text text-anchor="start" x="8" y="-228.6" font-family="Times,serif" font-size="13.00">Models diagram</text>
<text text-anchor="start" x="8" y="-214.6" font-family="Times,serif" font-size="13.00">Date: Jul 10 2017 &#45; 20:10</text>
<text text-anchor="start" x="8" y="-200.6" font-family="Times,serif" font-size="13.00">Migration version: 20170710235903</text>
<text text-anchor="start" x="8" y="-186.6" font-family="Times,serif" font-size="13.00">Generated by RailRoady 1.5.3</text>
<text text-anchor="start" x="8" y="-172.6" font-family="Times,serif" font-size="13.00">http://railroady.prestonlee.com</text>
</g>
<!-- Product -->
<g id="node2" class="node"><title>Product</title>
<path fill="none" stroke="black" d="M244,-0.5C244,-0.5 464,-0.5 464,-0.5 470,-0.5 476,-6.5 476,-12.5 476,-12.5 476,-109.5 476,-109.5 476,-115.5 470,-121.5 464,-121.5 464,-121.5 244,-121.5 244,-121.5 238,-121.5 232,-115.5 232,-109.5 232,-109.5 232,-12.5 232,-12.5 232,-6.5 238,-0.5 244,-0.5"/>
<text text-anchor="middle" x="354" y="-106.3" font-family="Times,serif" font-size="14.00">Product</text>
<polyline fill="none" stroke="black" points="232,-98.5 476,-98.5 "/>
<text text-anchor="start" x="240" y="-83.3" font-family="Times,serif" font-size="14.00">id :integer</text>
<text text-anchor="start" x="240" y="-68.3" font-family="Times,serif" font-size="14.00">name :character varying</text>
<text text-anchor="start" x="240" y="-53.3" font-family="Times,serif" font-size="14.00">price :integer</text>
<text text-anchor="start" x="240" y="-38.3" font-family="Times,serif" font-size="14.00">category_id :integer</text>
<text text-anchor="start" x="240" y="-23.3" font-family="Times,serif" font-size="14.00">created_at :timestamp without time zone</text>
<text text-anchor="start" x="240" y="-8.3" font-family="Times,serif" font-size="14.00">updated_at :timestamp without time zone</text>
</g>
<!-- ApplicationRecord -->
<g id="node3" class="node"><title>ApplicationRecord</title>
<ellipse fill="none" stroke="black" cx="571" cy="-204" rx="77.1866" ry="18"/>
<text text-anchor="middle" x="571" y="-200.3" font-family="Times,serif" font-size="14.00">ApplicationRecord</text>
</g>
<!-- Category -->
<g id="node4" class="node"><title>Category</title>
<path fill="none" stroke="black" d="M244,-158.5C244,-158.5 464,-158.5 464,-158.5 470,-158.5 476,-164.5 476,-170.5 476,-170.5 476,-237.5 476,-237.5 476,-243.5 470,-249.5 464,-249.5 464,-249.5 244,-249.5 244,-249.5 238,-249.5 232,-243.5 232,-237.5 232,-237.5 232,-170.5 232,-170.5 232,-164.5 238,-158.5 244,-158.5"/>
<text text-anchor="middle" x="354" y="-234.3" font-family="Times,serif" font-size="14.00">Category</text>
<polyline fill="none" stroke="black" points="232,-226.5 476,-226.5 "/>
<text text-anchor="start" x="240" y="-211.3" font-family="Times,serif" font-size="14.00">id :integer</text>
<text text-anchor="start" x="240" y="-196.3" font-family="Times,serif" font-size="14.00">name :character varying</text>
<text text-anchor="start" x="240" y="-181.3" font-family="Times,serif" font-size="14.00">created_at :timestamp without time zone</text>
<text text-anchor="start" x="240" y="-166.3" font-family="Times,serif" font-size="14.00">updated_at :timestamp without time zone</text>
</g>
<!-- Category&#45;&gt;Product -->
<g id="edge1" class="edge"><title>Category&#45;&gt;Product</title>
<path fill="none" stroke="#d2372e" d="M354,-150.283C354,-144.279 354,-138.09 354,-131.907"/>
<ellipse fill="none" stroke="#d2372e" cx="354" cy="-154.387" rx="4" ry="4"/>
<polygon fill="#d2372e" stroke="#d2372e" points="354,-131.541 358.5,-121.541 354,-126.541 354,-121.541 354,-121.541 354,-121.541 354,-126.541 349.5,-121.541 354,-131.541 354,-131.541"/>
</g>
</g>
</svg>
